<?xml version="1.0" encoding="UTF-8"?><svg xmlns="http://www.w3.org/2000/svg" version="1.1" viewBox="0 0 288 144"><path d="M252.7,102.1s-48.2,48.2-105.5,22.2c-63.3-28.8-118.3-12.4-118.3-12.4,0,0,56.7-22.7,116-2.9,58.7,19.7,107.9-6.9,107.9-6.9" fill="#b6bbc3"/><path d="M240.5,89.3c7.7-5.9,9.4-13.5,11.2-21.9l.5-2.3h-2.9c-1.8,8.3-3.7,15.9-11.9,21.7-8.1,5.7-16.5,5.8-25.4,5.8h-1c-12.3,0-22.6-.3-28.1-6,1.7,3.4,4.6,5.5,8.2,6.9-9-.5-18.4-1.7-28.1-3.8,8.2-6,9.9-13.7,11.7-22.3l.5-2.3h-2.9c-1.8,8.3-3.7,15.9-11.9,21.7-.9.6-1.8,1.2-2.7,1.7-4.4-1.1-8.9-2.4-13.4-3.9-16.4-5.5-32.3-7.1-47-6.2h0s-13.4-25.2-13.4-25.2L118.2,15.8h-5.2l-33.2,35.7,14.5,27h0c-16.5,1.4-31.4,5.8-44.1,11.1h0s5.4-25.6,5.4-25.6h5.7l-1.6-3.2h-6.3l-6.4,30.2h0c-.7.3-1.3.6-2,.9h-16.4l-.7,3.2h10.5c-18.4,9.4-29.5,19.1-29.5,19.1,0,0,61.8-35.2,138.4-8.4,75.3,26.4,131.8-30.1,131.8-30.1,0,0-14.7,8.2-38.6,13.6Z" fill="#0f3b63"/><polygon points="65.9 15.8 62.9 15.8 57.2 42.4 60.2 42.4 65.9 15.8" fill="#0f3b63"/><path d="M180.2,41.2c2.2-11.1,1.2-17.5-2.6-21.2,1.8,3.9,2,9.6.3,18l-.6,3.1h-18.9s0,0,0,.1l-.6,3.1h21.8l.6-3.1Z" fill="#0f3b63"/><path d="M126.9,72.6c-.6-2.6,0-6.4,1.2-11.7l2.6-12.4c2.4-11.3,4.4-15,16.4-15s6.9.1,8.9,1.3c-.9-4.1-5.2-4.5-11.2-4.5-12.1,0-14,3.7-16.4,15l-2.6,12.4c-1.7,8-2.4,12.6,1.1,14.8Z" fill="#0f3b63"/><path d="M257.2,41.2c.8-3.9,1.1-7.1,1.1-9.9v-.2c0-5.1-1.3-8.6-3.7-11,1,2,1.5,4.6,1.5,7.8v.2c0,2.8-.4,6.1-1.1,9.9l-.7,3.1h-18.9s0,0,0,.1l-.6,3.1h21.8l.7-3.1Z" fill="#0f3b63"/><path d="M203.9,72.6c-.6-2.6,0-6.4,1.2-11.7l2.6-12.4c2.4-11.3,4.4-15,16.4-15s6.9.1,8.9,1.3c-.9-4.1-5.2-4.5-11.2-4.5-12.1,0-14,3.7-16.4,15l-2.6,12.4c-1.7,8-2.4,12.6,1.1,14.8Z" fill="#0f3b63"/><polygon points="115.9 12.6 90.3 12.6 63.6 42.4 60.2 42.4 57.2 42.4 62.9 15.8 63.6 12.6 42.4 12.6 25.6 91.9 28.5 91.9 44.9 91.9 46.7 91.9 46.9 91 53.3 60.8 59.7 60.8 61.3 64 70.6 82.7 75.2 91.9 75.9 91.9 101.4 91.9 94.2 78.5 79.7 51.5 113 15.8 115.9 12.6" fill="#c61f49"/><path d="M177.6,20c-3.4-7.1-12.4-8-26.5-8-23.3,0-38.1,3.8-43.7,30l-4.4,20.5c-1.4,6.5-1.7,11.6-1.1,15.6.6,3.7,1.9,6.4,3.9,8.5,5.5,5.6,15.8,6,28.1,6h1c7.9,0,15.4,0,22.7-4.1.9-.5,1.8-1.1,2.7-1.7,8.2-5.8,10.1-13.3,11.9-21.7,0-.3.1-.6.2-.9l.5-2.3h-21.8l-.5,2.3c-2,9.3-6.3,9.9-15.1,9.9s-6.9-.5-8.6-1.6c-3.5-2.2-2.8-6.9-1.1-14.8l2.6-12.4c2.4-11.3,4.4-15,16.4-15s10.3.4,11.2,4.5c.2.9.2,1.9,0,3.1l-.6,3.1h21.8l.6-3.1c1.6-8.4,1.5-14.1-.3-18Z" fill="#c61f49"/><path d="M254.6,20c-3.4-7.1-12.4-8-26.5-8-23.3,0-38.1,3.8-43.7,30l-4.4,20.5c-2.7,12.5-1.3,19.8,2.9,24,5.5,5.6,15.8,6,28.1,6h1c8.8,0,17.2-.1,25.4-5.8,8.2-5.8,10.1-13.3,11.9-21.7,0-.3.1-.6.2-.9l.5-2.3h-21.8l-.5,2.3c-2,9.3-6.3,9.9-15.1,9.9s-6.9-.5-8.6-1.6c-3.5-2.2-2.8-6.9-1.1-14.8l2.6-12.4c2.4-11.3,4.3-15,16.4-15s10.3.4,11.2,4.5c.2.9.2,1.9,0,3.1l-.7,3.1h21.8l.7-3.1c.8-3.9,1.1-7.1,1.1-9.9v-.2c0-3.2-.5-5.8-1.5-7.8Z" fill="#c61f49"/></svg>
