<?xml version="1.0" encoding="UTF-8"?>
<svg id="Layer_2" xmlns="http://www.w3.org/2000/svg" version="1.1" viewBox="0 0 288 144">
  <path d="M252.666,102.119s-48.238,48.244-105.522,22.187c-63.299-28.799-118.325-12.41-118.325-12.41,0,0,56.723-22.743,115.963-2.875,58.681,19.676,107.885-6.902,107.885-6.902" fill="#b6bbc3"/>
  <path d="M240.509,89.261c7.712-5.929,9.416-13.505,11.194-21.867l.495-2.322h-2.945c-1.786,8.336-3.706,15.85-11.905,21.681-8.132,5.698-16.548,5.814-25.366,5.814h-1.039c-12.281,0-22.604-.345-28.084-5.985,1.738,3.393,4.568,5.532,8.221,6.881-8.962-.476-18.371-1.665-28.108-3.789,8.176-5.987,9.927-13.722,11.737-22.281l.495-2.322h-2.944c-1.779,8.336-3.707,15.85-11.906,21.681-.893.625-1.79,1.184-2.69,1.683-4.424-1.11-8.909-2.415-13.447-3.942-16.426-5.529-32.28-7.081-46.999-6.174l-.004-.008-13.432-25.157L118.206,15.788h-5.223l-33.234,35.739,14.474,27.004.004.008c-16.472,1.398-31.434,5.818-44.069,11.099v-.006s5.445-25.622,5.445-25.622h5.66l-1.583-3.177h-6.345l-6.414,30.192h0c-.674.299-1.339.6-1.998.902h-16.401l-.675,3.177h10.509c-18.356,9.364-29.454,19.099-29.454,19.099,0,0,61.812-35.217,138.384-8.415,75.33,26.361,131.813-30.087,131.813-30.087,0,0-14.738,8.225-38.59,13.56Z" fill="#0f3b63"/>
  <polygon points="65.853 15.788 62.91 15.788 57.249 42.437 60.192 42.437 65.853 15.788" fill="#0f3b63"/>
  <path d="M180.18,41.168c2.158-11.079,1.212-17.481-2.613-21.16,1.833,3.875,1.982,9.585.346,17.983l-.648,3.069h-18.861c-.004.036-.008.072-.012.108l-.647,3.069h21.789l.648-3.069Z" fill="#0f3b63"/>
  <path d="M126.9,72.602c-.648-2.62.059-6.425,1.17-11.652l2.628-12.375c2.403-11.322,4.356-15.021,16.407-15.021,3.78,0,6.913.147,8.926,1.311-.898-4.125-5.243-4.488-11.194-4.488-12.051,0-14.004,3.699-16.407,15.021l-2.628,12.375c-1.694,7.964-2.448,12.628,1.098,14.829Z" fill="#0f3b63"/>
  <path d="M257.175,41.168c.75-3.85,1.125-7.135,1.134-9.938v-.226c-.019-5.136-1.287-8.629-3.747-10.995.97,2.049,1.468,4.615,1.48,7.818v.227c-.01,2.803-.384,6.087-1.134,9.938l-.657,3.069h-18.853c-.004.036-.008.072-.012.108l-.647,3.069h21.779l.657-3.069Z" fill="#0f3b63"/>
  <path d="M203.894,72.602c-.648-2.621.059-6.425,1.172-11.652l2.628-12.375c2.402-11.322,4.355-15.021,16.406-15.021,3.778,0,6.912.147,8.926,1.313-.898-4.127-5.249-4.49-11.193-4.49-12.06,0-14.004,3.699-16.407,15.021l-2.637,12.375c-1.688,7.964-2.441,12.628,1.106,14.829Z" fill="#0f3b63"/>
  <polygon points="115.938 12.611 90.342 12.611 63.594 42.437 60.192 42.437 57.249 42.437 62.91 15.788 63.585 12.611 42.435 12.611 25.578 91.928 28.521 91.928 44.916 91.928 46.728 91.928 46.92 91.025 53.334 60.833 59.679 60.833 61.262 64.01 70.566 82.676 75.177 91.928 75.863 91.928 101.403 91.928 94.223 78.531 79.749 51.527 112.984 15.788 115.938 12.611" fill="#c61f49"/>
  <path d="M177.567,20.008c-3.361-7.105-12.39-8.036-26.483-8.036-23.274,0-38.142,3.816-43.722,30.042l-4.356,20.52c-1.382,6.493-1.673,11.583-1.051,15.574.573,3.681,1.924,6.428,3.913,8.476,5.479,5.64,15.801,5.983,28.08,5.983h1.041c7.855,0,15.38-.092,22.673-4.13.9-.499,1.799-1.058,2.692-1.685,8.199-5.831,10.127-13.346,11.906-21.681.06-.284.121-.569.182-.855l.494-2.322h-21.788l-.486,2.322c-1.981,9.307-6.345,9.945-15.129,9.945-4.157,0-6.905-.487-8.632-1.56-3.546-2.201-2.792-6.865-1.098-14.829l2.628-12.375c2.403-11.322,4.356-15.021,16.407-15.021,5.951,0,10.297.363,11.194,4.488.188.866.225,1.897.092,3.126l-.648,3.069h21.789l.648-3.069c1.636-8.398,1.487-14.108-.346-17.983Z" fill="#c61f49"/>
  <path d="M254.562,20.009c-3.361-7.107-12.392-8.037-26.492-8.037-23.266,0-38.142,3.816-43.713,30.042l-4.365,20.52c-2.651,12.478-1.279,19.779,2.867,24.048,5.479,5.641,15.803,5.985,28.084,5.985h1.039c8.818,0,17.234-.116,25.366-5.814,8.199-5.831,10.119-13.346,11.905-21.681.061-.284.121-.569.182-.855l.495-2.322h-21.789l-.494,2.322c-1.98,9.307-6.346,9.945-15.12,9.945-4.157,0-6.905-.488-8.633-1.56-3.547-2.201-2.794-6.865-1.106-14.829l2.637-12.375c2.403-11.322,4.348-15.021,16.407-15.021,5.944,0,10.296.363,11.193,4.49.188.866.226,1.897.093,3.125l-.657,3.069h21.789l.657-3.069c.75-3.851,1.124-7.135,1.134-9.938v-.227c-.012-3.203-.51-5.769-1.48-7.818Z" fill="#c61f49"/>
</svg>
