<?xml version="1.0" encoding="utf-8"?>
<!-- Generator: Adobe Illustrator 24.0.3, SVG Export Plug-In . SVG Version: 6.00 Build 0)  -->
<svg version="1.1" id="Layer_1" xmlns="http://www.w3.org/2000/svg" xmlns:xlink="http://www.w3.org/1999/xlink" x="0px" y="0px"
	 viewBox="0 0 56 56" style="enable-background:new 0 0 56 56;" xml:space="preserve">
<path style="fill:#FFFFFF;" d="M45.07,49.28H34.93c-0.54,0-0.97-0.43-0.97-0.97V7.69c0-0.54,0.43-0.97,0.97-0.97h10.15
	c0.54,0,0.97,0.43,0.97,0.97v40.62C46.04,48.84,45.61,49.28,45.07,49.28z"/>
<path style="fill:#FFFFFF;" d="M21.07,49.28H10.93c-0.54,0-0.97-0.43-0.97-0.97V7.69c0-0.54,0.43-0.97,0.97-0.97h10.15
	c0.54,0,0.97,0.43,0.97,0.97v40.62C22.04,48.84,21.61,49.28,21.07,49.28z"/>
</svg>
