<svg viewBox="0 0 970 200" xmlns="http://www.w3.org/2000/svg"><path d="m0 0h970v200h-970z" fill="#0f3b63"/><circle cx="485" cy="100" fill="#14527f" r="57.3"/><path d="m437 52h96v96h-96z" fill="none"/><circle cx="505" cy="70.2" fill="#e8eaed" r="8"/><path d="m493 120h-8c0 6.6-5.4 12-12 12s-12-5.4-12-12 5.4-12 12-12v-8c-11 0-20 9-20 20s9 20 20 20 20-9 20-20zm12-14h-7.4l6.7-14.7c2.4-5.3-1.5-11.3-7.4-11.3h-20.8c-3.2 0-6.2 1.9-7.5 4.8l-2.7 7.2 7.7 2.1 2.6-6.1h8.8l-7.3 16.4c-2.4 5.3 1.6 11.6 7.4 11.6h19.9v20h8v-22c0-4.4-3.6-8-8-8z" fill="#e8eaed"/><circle cx="825" cy="100" fill="#14527f" r="57.3"/><path d="m777 52h96v96h-96z" fill="none"/><path d="m845 132c-1.2 0-2.2-.2-3-.6-2.8-1.5-4.8-3.5-6.8-9.5-2-6.2-5.9-9.2-9.6-12-3.2-2.4-6.4-5-9.3-10.1-2.1-3.8-3.3-8-3.3-11.8 0-11.2 8.8-20 20-20s20 8.8 20 20h8c0-15.7-12.3-28-28-28s-28 12.3-28 28 1.5 10.6 4.3 15.6c3.6 6.6 7.9 9.9 11.4 12.6 3.2 2.5 5.6 4.3 6.8 8.2 2.4 7.3 5.5 11.4 10.9 14.2 2 .9 4.3 1.4 6.6 1.4 8.8 0 16-7.2 16-16h-8c0 4.4-3.6 8-8 8zm-37.4-69.4-5.7-5.7c-8 8-12.9 19-12.9 31.1s4.9 23.2 12.9 31.1l5.6-5.6c-6.5-6.5-10.5-15.5-10.5-25.5s4-19 10.6-25.4zm15.4 25.4c0 5.5 4.5 10 10 10s10-4.5 10-10-4.5-10-10-10-10 4.5-10 10z" fill="#e8eaed"/><circle cx="655" cy="100" fill="#14527f" r="57.3"/><path d="m607 52h96v96h-96z" fill="none"/><path d="m669 108h-3.2l-1.1-1.1c3.9-4.6 6.3-10.5 6.3-16.9 0-14.4-11.6-26-26-26s-26 11.6-26 26 11.6 26 26 26 12.4-2.4 16.9-6.3l1.1 1.1v3.2l20 20 6-6zm-24 0c-10 0-18-8-18-18s8-18 18-18 18 8 18 18-8 18-18 18z" fill="#e8eaed"/><path d="m655 92h-8v8h-4v-8h-8v-4h8v-8h4v8h8z" fill="#e8eaed"/><circle cx="145" cy="100" fill="#14527f" r="57.3"/><path d="m97 52h96v96h-96z" fill="none"/><path d="m147 104-3.7-7.4c-1.5-3-.3-6.6 2.7-8l1-.5 22.9 21.8c2 1.9 3.1 4.5 3.1 7.2v20.9c0 5.5-4.5 10-10 10h-44c-2.2 0-4-1.8-4-4s1.8-4 4-4h18v-4h-24c-2.2 0-4-1.8-4-4s1.8-4 4-4h24v-4h-28c-2.2 0-4-1.8-4-4s1.8-4 4-4h28v-4h-22c-2.2 0-4-1.8-4-4s1.8-4 4-4zm-2.9-23.5c-3.4 1.6-4.7 2.5-6.5 4.8l-10.8-11.4c-1.5-1.6-1.4-4.1.2-5.6s4.1-1.4 5.6.2l11.5 12.1zm-8.5 8.3c-.9 2.2-1.2 5-.8 7.2h-3.4l-9.1-9.6c-1.5-1.6-1.5-4.1.2-5.6 1.6-1.5 4.1-1.4 5.6.2l7.5 7.9zm42.7 18.8 3.5-3.3c2-1.9 3.2-4.5 3.2-7.3v-31.6l-1.1-.4c-3.1-1.1-6.6.5-7.7 3.6l-2.8 7.8-22-23.2c-1.5-1.6-4-1.7-5.6-.2s-1.7 4-.2 5.6l15.2 16-2.9 2.8-19.3-20.3c-1.5-1.6-4-1.7-5.6-.2s-1.7 4-.2 5.6l15.1 15.9 10.6 9.5 14.4 13.7 2.4 2.3c1.2 1.1 2.1 2.3 2.9 3.6z" fill="#e8eaed"/><circle cx="315" cy="100" fill="#14527f" r="57.3"/><path d="m267 52h96v96h-96z" fill="none"/><path d="m343 68h-56c-4.4 0-8 3.6-8 8v48c0 4.4 3.6 8 8 8h56c4.4 0 8-3.6 8-8v-48c0-4.4-3.6-8-8-8zm-32 28h-6v-2h-8v12h8v-2h6v4c0 2.2-1.8 4-4 4h-12c-2.2 0-4-1.8-4-4v-16c0-2.2 1.8-4 4-4h12c2.2 0 4 1.8 4 4zm28 0h-6v-2h-8v12h8v-2h6v4c0 2.2-1.8 4-4 4h-12c-2.2 0-4-1.8-4-4v-16c0-2.2 1.8-4 4-4h12c2.2 0 4 1.8 4 4z" fill="#e8eaed"/></svg>