<svg viewBox="0 0 866.44 216.53" xmlns="http://www.w3.org/2000/svg"><path d="m40.03 54.32h346.38v107.89h-346.38z" fill="#009245"/><path d="m74.3 111.9-3.24 9.81h-4.17l10.6-31.19h4.86l10.64 31.19h-4.3l-3.33-9.81zm10.22-3.15-3.05-8.98c-.69-2.04-1.16-3.89-1.62-5.69h-.09c-.46 1.85-.97 3.75-1.57 5.65l-3.05 9.02h9.39z" fill="#fff"/><path d="m101.88 92.88v6.43h5.83v3.1h-5.83v12.08c0 2.78.79 4.35 3.05 4.35 1.06 0 1.85-.14 2.36-.28l.19 3.05c-.79.32-2.04.56-3.61.56-1.9 0-3.42-.6-4.4-1.71-1.16-1.2-1.57-3.19-1.57-5.83v-12.22h-3.47v-3.1h3.47v-5.37z" fill="#fff"/><path d="m117.2 92.88v6.43h5.83v3.1h-5.83v12.08c0 2.78.79 4.35 3.05 4.35 1.06 0 1.85-.14 2.36-.28l.19 3.05c-.79.32-2.04.56-3.61.56-1.9 0-3.42-.6-4.4-1.71-1.16-1.2-1.57-3.19-1.57-5.83v-12.22h-3.47v-3.1h3.47v-5.37z" fill="#fff"/><path d="m129.6 111.25c.09 5.51 3.61 7.78 7.68 7.78 2.92 0 4.67-.51 6.2-1.16l.69 2.92c-1.43.65-3.89 1.39-7.45 1.39-6.9 0-11.01-4.54-11.01-11.29s3.98-12.08 10.51-12.08c7.31 0 9.26 6.43 9.26 10.55 0 .83-.09 1.48-.14 1.9h-15.74zm11.94-2.91c.05-2.59-1.06-6.62-5.65-6.62-4.12 0-5.92 3.79-6.25 6.62h11.89z" fill="#fff"/><path d="m150.52 105.38c0-2.31-.05-4.21-.19-6.06h3.61l.23 3.7h.09c1.11-2.13 3.7-4.21 7.4-4.21 3.1 0 7.91 1.85 7.91 9.53v13.38h-4.07v-12.91c0-3.61-1.34-6.62-5.18-6.62-2.68 0-4.77 1.9-5.46 4.17-.19.51-.28 1.2-.28 1.9v13.47h-4.07v-16.34z" fill="#fff"/><path d="m195.55 88.85v27.07c0 1.99.05 4.26.19 5.79h-3.66l-.19-3.89h-.09c-1.25 2.5-3.98 4.4-7.64 4.4-5.41 0-9.58-4.58-9.58-11.39-.05-7.45 4.58-12.03 10.04-12.03 3.42 0 5.74 1.62 6.76 3.42h.09v-13.38h4.07zm-4.08 19.58c0-.51-.05-1.2-.19-1.71-.6-2.59-2.82-4.72-5.88-4.72-4.21 0-6.71 3.7-6.71 8.65 0 4.54 2.22 8.28 6.62 8.28 2.73 0 5.23-1.8 5.97-4.86.14-.56.19-1.11.19-1.76v-3.89z" fill="#fff"/><path d="m217.02 92.88v6.43h5.83v3.1h-5.83v12.08c0 2.78.79 4.35 3.05 4.35 1.06 0 1.85-.14 2.36-.28l.19 3.05c-.79.32-2.04.56-3.61.56-1.9 0-3.42-.6-4.4-1.71-1.16-1.2-1.57-3.19-1.57-5.83v-12.22h-3.47v-3.1h3.47v-5.37z" fill="#fff"/><path d="m227.43 106.3c0-2.64-.05-4.91-.19-6.99h3.56l.14 4.4h.19c1.02-3.01 3.47-4.91 6.2-4.91.46 0 .79.05 1.16.14v3.84c-.42-.09-.83-.14-1.39-.14-2.87 0-4.91 2.18-5.46 5.23-.09.56-.19 1.2-.19 1.9v11.94h-4.03v-15.41z" fill="#fff"/><path d="m254.74 121.71-.32-2.82h-.14c-1.25 1.76-3.66 3.33-6.85 3.33-4.54 0-6.85-3.19-6.85-6.43 0-5.41 4.81-8.38 13.47-8.33v-.46c0-1.85-.51-5.18-5.09-5.18-2.08 0-4.26.65-5.83 1.67l-.93-2.68c1.85-1.2 4.54-1.99 7.36-1.99 6.85 0 8.52 4.67 8.52 9.16v8.38c0 1.94.09 3.84.37 5.37h-3.7zm-.61-11.43c-4.44-.09-9.49.69-9.49 5.04 0 2.64 1.76 3.89 3.84 3.89 2.92 0 4.77-1.85 5.41-3.75.14-.42.23-.88.23-1.3v-3.89z" fill="#fff"/><path d="m269.18 93.02c.05 1.39-.97 2.5-2.59 2.5-1.43 0-2.45-1.11-2.45-2.5s1.06-2.55 2.55-2.55 2.5 1.11 2.5 2.55zm-4.54 28.69v-22.4h4.07v22.4z" fill="#fff"/><path d="m275.47 105.38c0-2.31-.05-4.21-.19-6.06h3.61l.23 3.7h.09c1.11-2.13 3.7-4.21 7.4-4.21 3.1 0 7.91 1.85 7.91 9.53v13.38h-4.07v-12.91c0-3.61-1.34-6.62-5.18-6.62-2.68 0-4.77 1.9-5.46 4.17-.19.51-.28 1.2-.28 1.9v13.47h-4.07v-16.34z" fill="#fff"/><path d="m305.69 93.02c.05 1.39-.97 2.5-2.59 2.5-1.43 0-2.45-1.11-2.45-2.5s1.06-2.55 2.55-2.55 2.5 1.11 2.5 2.55zm-4.54 28.69v-22.4h4.07v22.4z" fill="#fff"/><path d="m311.98 105.38c0-2.31-.05-4.21-.19-6.06h3.61l.23 3.7h.09c1.11-2.13 3.7-4.21 7.4-4.21 3.1 0 7.91 1.85 7.91 9.53v13.38h-4.07v-12.91c0-3.61-1.34-6.62-5.18-6.62-2.68 0-4.77 1.9-5.46 4.17-.19.51-.28 1.2-.28 1.9v13.47h-4.07v-16.34z" fill="#fff"/><path d="m356.97 99.31c-.09 1.62-.19 3.42-.19 6.16v13c0 5.14-1.02 8.28-3.19 10.23-2.18 2.04-5.32 2.68-8.15 2.68s-5.65-.65-7.45-1.85l1.02-3.1c1.48.93 3.79 1.76 6.57 1.76 4.17 0 7.22-2.17 7.22-7.82v-2.5h-.09c-1.25 2.08-3.66 3.75-7.13 3.75-5.55 0-9.53-4.72-9.53-10.92 0-7.59 4.95-11.89 10.09-11.89 3.89 0 6.02 2.04 6.99 3.89h.09l.19-3.38h3.56zm-4.22 8.84c0-.69-.05-1.3-.23-1.85-.74-2.36-2.73-4.3-5.69-4.3-3.89 0-6.66 3.29-6.66 8.47 0 4.4 2.22 8.05 6.62 8.05 2.5 0 4.77-1.57 5.65-4.17.23-.69.32-1.48.32-2.18v-4.03z" fill="#fff"/><path d="m480.03 54.32h346.38v107.89h-346.38z" fill="#c1272d"/><g fill="#fff"><path d="m507.43 90.94c2.45-.37 5.37-.65 8.56-.65 5.79 0 9.9 1.34 12.63 3.89 2.78 2.55 4.4 6.16 4.4 11.2s-1.57 9.26-4.49 12.13c-2.92 2.92-7.73 4.49-13.79 4.49-2.87 0-5.28-.14-7.31-.37v-30.68zm4.02 27.58c1.02.19 2.5.23 4.07.23 8.61 0 13.28-4.81 13.28-13.24.05-7.36-4.12-12.03-12.63-12.03-2.08 0-3.66.19-4.72.42z"/><path d="m540.56 111.25c.09 5.51 3.61 7.78 7.68 7.78 2.92 0 4.67-.51 6.2-1.16l.69 2.92c-1.43.65-3.89 1.39-7.45 1.39-6.9 0-11.01-4.54-11.01-11.29s3.98-12.08 10.51-12.08c7.31 0 9.26 6.43 9.26 10.55 0 .83-.09 1.48-.14 1.9h-15.74zm11.94-2.91c.05-2.59-1.06-6.62-5.65-6.62-4.12 0-5.92 3.79-6.25 6.62h11.89z"/><path d="m577.45 120.88c-1.06.56-3.42 1.3-6.43 1.3-6.76 0-11.15-4.58-11.15-11.43s4.72-11.89 12.03-11.89c2.41 0 4.54.6 5.65 1.16l-.93 3.15c-.97-.56-2.5-1.06-4.72-1.06-5.14 0-7.91 3.79-7.91 8.47 0 5.18 3.33 8.38 7.77 8.38 2.31 0 3.84-.6 5-1.11l.69 3.05z"/><path d="m582.21 88.85h4.07v32.86h-4.07z"/><path d="m597.67 93.02c.05 1.39-.97 2.5-2.59 2.5-1.43 0-2.45-1.11-2.45-2.5s1.06-2.55 2.55-2.55 2.5 1.11 2.5 2.55zm-4.54 28.69v-22.4h4.07v22.4z"/><path d="m603.96 105.38c0-2.31-.05-4.21-.19-6.06h3.61l.23 3.7h.09c1.11-2.13 3.7-4.21 7.4-4.21 3.1 0 7.91 1.85 7.91 9.53v13.38h-4.07v-12.91c0-3.61-1.34-6.62-5.18-6.62-2.68 0-4.77 1.9-5.46 4.17-.19.51-.28 1.2-.28 1.9v13.47h-4.07v-16.34z"/><path d="m631.92 111.25c.09 5.51 3.61 7.78 7.68 7.78 2.92 0 4.67-.51 6.2-1.16l.69 2.92c-1.43.65-3.89 1.39-7.45 1.39-6.9 0-11.01-4.54-11.01-11.29s3.98-12.08 10.51-12.08c7.31 0 9.26 6.43 9.26 10.55 0 .83-.09 1.48-.14 1.9h-15.74zm11.94-2.91c.05-2.59-1.06-6.62-5.65-6.62-4.12 0-5.92 3.79-6.25 6.62h11.89z"/><path d="m667.55 92.88v6.43h5.83v3.1h-5.83v12.08c0 2.78.79 4.35 3.05 4.35 1.06 0 1.85-.14 2.36-.28l.18 3.05c-.79.32-2.04.56-3.61.56-1.9 0-3.42-.6-4.4-1.71-1.16-1.2-1.57-3.19-1.57-5.83v-12.22h-3.47v-3.1h3.47v-5.37l3.98-1.06z"/><path d="m677.96 106.3c0-2.64-.05-4.91-.18-6.99h3.56l.14 4.4h.19c1.02-3.01 3.47-4.91 6.2-4.91.46 0 .79.05 1.16.14v3.84c-.42-.09-.83-.14-1.39-.14-2.87 0-4.91 2.18-5.46 5.23-.09.56-.19 1.2-.19 1.9v11.94h-4.03z"/><path d="m705.27 121.71-.32-2.82h-.14c-1.25 1.76-3.66 3.33-6.85 3.33-4.54 0-6.85-3.19-6.85-6.43 0-5.41 4.81-8.38 13.47-8.33v-.46c0-1.85-.51-5.18-5.09-5.18-2.08 0-4.26.65-5.83 1.67l-.93-2.68c1.85-1.2 4.54-1.99 7.36-1.99 6.85 0 8.52 4.67 8.52 9.16v8.38c0 1.94.09 3.84.37 5.37h-3.7zm-.6-11.43c-4.44-.09-9.49.69-9.49 5.04 0 2.64 1.76 3.89 3.84 3.89 2.92 0 4.77-1.85 5.42-3.75.14-.42.23-.88.23-1.3v-3.89z"/><path d="m719.71 93.02c.05 1.39-.97 2.5-2.59 2.5-1.43 0-2.45-1.11-2.45-2.5s1.06-2.55 2.55-2.55 2.5 1.11 2.5 2.55zm-4.54 28.69v-22.4h4.07v22.4z"/><path d="m726 105.38c0-2.31-.05-4.21-.19-6.06h3.61l.23 3.7h.09c1.11-2.13 3.7-4.21 7.41-4.21 3.1 0 7.91 1.85 7.91 9.53v13.38h-4.07v-12.91c0-3.61-1.34-6.62-5.18-6.62-2.68 0-4.77 1.9-5.46 4.17-.18.51-.28 1.2-.28 1.9v13.47h-4.07v-16.34z"/><path d="m756.22 93.02c.05 1.39-.97 2.5-2.59 2.5-1.43 0-2.45-1.11-2.45-2.5s1.06-2.55 2.54-2.55 2.5 1.11 2.5 2.55zm-4.54 28.69v-22.4h4.07v22.4z"/><path d="m762.51 105.38c0-2.31-.05-4.21-.18-6.06h3.61l.23 3.7h.09c1.11-2.13 3.7-4.21 7.4-4.21 3.1 0 7.91 1.85 7.91 9.53v13.38h-4.07v-12.91c0-3.61-1.34-6.62-5.18-6.62-2.68 0-4.77 1.9-5.46 4.17-.19.51-.28 1.2-.28 1.9v13.47h-4.07v-16.34z"/><path d="m807.5 99.31c-.09 1.62-.18 3.42-.18 6.16v13c0 5.14-1.02 8.28-3.19 10.23-2.18 2.04-5.32 2.68-8.15 2.68s-5.65-.65-7.45-1.85l1.02-3.1c1.48.93 3.79 1.76 6.57 1.76 4.17 0 7.22-2.17 7.22-7.82v-2.5h-.09c-1.25 2.08-3.66 3.75-7.13 3.75-5.55 0-9.53-4.72-9.53-10.92 0-7.59 4.95-11.89 10.09-11.89 3.89 0 6.02 2.04 6.99 3.89h.09l.18-3.38h3.56zm-4.21 8.84c0-.69-.05-1.3-.23-1.85-.74-2.36-2.73-4.3-5.69-4.3-3.89 0-6.67 3.29-6.67 8.47 0 4.4 2.22 8.05 6.62 8.05 2.5 0 4.77-1.57 5.65-4.17.23-.69.32-1.48.32-2.18v-4.03z"/></g></svg>