<?xml version="1.0" encoding="UTF-8"?>
<svg id="Layer_1" xmlns="http://www.w3.org/2000/svg" xmlns:xlink="http://www.w3.org/1999/xlink" version="1.1" viewBox="0 0 1023.6 402.8">
  <!-- Generator: Adobe Illustrator 29.2.1, SVG Export Plug-In . SVG Version: 2.1.0 Build 116)  -->
  <defs>
    <style>
      .st1 {
        fill: #fff;
      }

      .st3 {
        fill: url(#radial-gradient);
      }

      .st4 {
        fill: #f4d081;
      }

      .st5 {
        fill: #0f3b63;
      }
    </style>
    <radialGradient id="radial-gradient" cx="511.6" cy="201.2" fx="-110.1" fy="110.6" r="628.2" gradientUnits="userSpaceOnUse">
      <stop offset="0" stop-color="#0f3b63"/>
      <stop offset=".1" stop-color="#133a62"/>
      <stop offset=".2" stop-color="#213860"/>
      <stop offset=".4" stop-color="#38345c"/>
      <stop offset=".5" stop-color="#582f58"/>
      <stop offset=".7" stop-color="#802952"/>
      <stop offset=".8" stop-color="#b2224a"/>
      <stop offset=".9" stop-color="#c61f48"/>
      <stop offset="1" stop-color="#fcee21"/>
    </radialGradient>
  </defs>
  <rect class="st3" x="0" y="0" width="1023.3" height="402.1"/>
  <path class="st5" d="M0,281.8c-29.1,0,124.8-4.4,158,0s97,17.4,112.2,17.4,36,7.6,60.5,7.6,60.5,4.4,82.8,10.4,51.2,8.2,62.1,1.6,31.1,4.9,44.7,4.9,45.8-15.8,73-8.7,36.5-10.4,49.6-10.9,94.8-9.3,104.6-5.4,18,2.2,24-1.6,13.1-1.1,19.1-3.3,18.5-12.5,37.1-12.5,110.6-6.5,141.7,3.3,28.9,1.6,32.1,1.6,19.1,3.3,22.3,4.9v112.2H-.6S.5,281.8,0,281.8Z"/>
  <g>
    <g>
      <path class="st1" d="M286.2,206.8v23.2h-9v-68.6h9v34l30.5-34h10.9l-26.9,30.3,29,38.3h-10.8l-24.3-31.9-8.4,8.8Z"/>
      <path class="st1" d="M378.5,225c-4.5,4-10.5,5.9-17.9,5.9s-14.6-2.9-19.5-8.7-7.3-13.6-7.3-23.3v-6.7c0-6.4,1.1-12,3.4-16.8,2.3-4.8,5.5-8.5,9.7-11.1,4.2-2.6,9-3.9,14.5-3.9s13.1,2,17.5,6.1c4.4,4.1,7,9.7,7.7,16.9h-9.1c-.8-5.5-2.5-9.4-5.1-11.9-2.6-2.5-6.3-3.7-11-3.7s-10.3,2.1-13.6,6.4-4.9,10.4-4.9,18.3v6.7c0,7.5,1.6,13.4,4.7,17.8,3.1,4.4,7.5,6.6,13.1,6.6s8.9-1.1,11.6-3.4c2.7-2.3,4.5-6.3,5.3-11.9h9.1c-.8,7.3-3.5,12.9-8,16.8Z"/>
      <path class="st1" d="M441.2,225c-4.5,4-10.5,5.9-17.9,5.9s-14.6-2.9-19.5-8.7-7.3-13.6-7.3-23.3v-6.7c0-6.4,1.1-12,3.4-16.8,2.3-4.8,5.5-8.5,9.7-11.1,4.2-2.6,9-3.9,14.5-3.9s13.1,2,17.5,6.1c4.4,4.1,7,9.7,7.7,16.9h-9.1c-.8-5.5-2.5-9.4-5.1-11.9-2.6-2.5-6.3-3.7-11-3.7s-10.3,2.1-13.6,6.4-4.9,10.4-4.9,18.3v6.7c0,7.5,1.6,13.4,4.7,17.8,3.1,4.4,7.5,6.6,13.1,6.6s8.9-1.1,11.6-3.4c2.7-2.3,4.5-6.3,5.3-11.9h9.1c-.8,7.3-3.5,12.9-8,16.8Z"/>
    </g>
    <rect class="st4" x="481.1" y="117.4" width="2.9" height="168.8"/>
    <g>
      <path class="st1" d="M523.3,210.4h1.7c-2.9,6.5-6.7,9.8-11.3,9.8s-3.4-.7-4.6-2c-1.2-1.3-1.8-3.1-1.8-5.4s.8-6.1,2.3-9.7c1.5-3.6,3.7-6.7,6.5-9.3,2.8-2.6,5.3-3.9,7.4-3.9s2.3.4,2.9,1.2c.7.8,1,1.8,1,3.1,0,2.5-1.2,4.9-3.7,7.2-2.5,2.3-6.2,4.5-11.2,6.6-.6,2-1,3.9-1,5.7s.3,2.6.9,3.3c.6.7,1.4,1.1,2.6,1.1,3.2,0,5.9-2.6,8.3-7.8ZM513,206.3c3-1.3,5.7-3.2,8-5.5s3.6-4.5,3.6-6.4-.2-1.5-.5-2c-.4-.4-.9-.6-1.6-.6-1.4,0-3,1.3-4.9,4-1.9,2.7-3.4,6.2-4.6,10.5Z"/>
      <path class="st1" d="M554.6,212.8h1.8c-1.4,2.5-2.8,4.4-4.2,5.6s-2.9,1.9-4.4,1.9-1.9-.3-2.7-1c-.8-.6-1.1-1.6-1.1-2.8s.5-3.1,1.6-6.2l3.7-10.6c1-2.9,1.5-4.8,1.5-5.6s-.2-1.3-.5-1.7-.8-.6-1.5-.6c-1.8,0-4,2.1-6.9,6.2-2.8,4.1-5.3,9.5-7.3,16.2l-1.7,5.5h-4.2l6.1-19.7c1.1-3.6,1.7-5.7,1.7-6.2s0-.7-.2-.9c-.1-.2-.4-.3-.7-.3-1.4,0-3,1.7-4.9,5.1h-1.6c2.9-5.2,5.6-7.9,8.2-7.9s1.6.3,2,.8.7,1.4.7,2.5c0,2-.8,5.1-2.3,9.2,4.2-8.3,8.2-12.5,12.2-12.5s2.4.4,3.3,1.3c.9.8,1.4,2.1,1.4,3.7s-.5,3-1.4,5.8l-3.7,11.1c-1,3-1.5,4.6-1.5,5s.1.8.3,1c.2.2.5.3,1,.3.8,0,1.6-.4,2.5-1.3.9-.9,1.9-2.2,2.9-4Z"/>
      <path class="st1" d="M592.8,210.4h1.7c-2.9,6.5-6.7,9.8-11.3,9.8s-3.4-.7-4.6-2c-1.2-1.3-1.8-3.1-1.8-5.4s.8-6.1,2.3-9.7c1.5-3.6,3.7-6.7,6.5-9.3,2.8-2.6,5.3-3.9,7.4-3.9s2.3.4,2.9,1.2c.7.8,1,1.8,1,3.1,0,2.5-1.2,4.9-3.7,7.2-2.5,2.3-6.2,4.5-11.2,6.6-.6,2-1,3.9-1,5.7s.3,2.6.9,3.3c.6.7,1.4,1.1,2.6,1.1,3.2,0,5.9-2.6,8.3-7.8ZM582.5,206.3c3-1.3,5.7-3.2,8-5.5s3.6-4.5,3.6-6.4-.2-1.5-.5-2c-.4-.4-.9-.6-1.6-.6-1.4,0-3,1.3-4.9,4-1.9,2.7-3.4,6.2-4.6,10.5Z"/>
      <path class="st1" d="M614.1,211.7c0,2.1-.8,4.1-2.5,5.9s-4.1,2.7-7.3,2.7-4.2-.5-5.4-1.6c-1.2-1.1-1.8-2.2-1.8-3.4s.2-1.2.5-1.7c.4-.5.8-.7,1.4-.7,1.2,0,1.9.7,1.9,2s0,.7-.2,1.3c0,.3-.1.4-.1.6,0,.6.4,1,1.1,1.4.7.4,1.6.6,2.6.6,1.5,0,3-.5,4.2-1.5s1.9-2.3,1.9-4.1-.9-3.9-2.7-7.1c-2.1-3.7-3.1-6.5-3.1-8.2s.9-4.1,2.6-5.6c1.8-1.5,3.8-2.3,6-2.3s3,.4,4.2,1.2c1.2.8,1.8,1.7,1.8,2.7s-.5,1.8-1.5,1.8-1.3-.7-1.7-2c-.4-1.5-1.4-2.3-3-2.3s-2.5.4-3.4,1.1c-1,.7-1.5,1.7-1.5,2.8s.8,3.7,2.3,6.5c1.5,2.5,2.4,4.4,2.9,5.7.5,1.3.7,2.7.7,4.1Z"/>
      <path class="st1" d="M621.5,205h-1.6l6.5-10.5c1.9-3,3.2-5.2,3.8-6.5.6-1.3,1.3-3.2,2.1-5.8l.5-1.7h4.2l-2.4,7.8-2.9,8.2c3.1-4.4,6.1-6.6,8.9-6.6s3.2.8,4.4,2.4c1.2,1.6,1.8,3.6,1.8,5.9s-.7,6-2.1,9.6c-1.4,3.6-3.5,6.6-6.1,8.9-2.6,2.3-5.2,3.5-7.8,3.5s-4.1-1.2-4.7-3.5l-4.1,13.4c-.5,1.7-.8,2.7-.8,3s.2.7.5,1,1.3.4,2.9.4h1.6l-.5,1.5h-14.5l.5-1.5h.8c2,0,3.2-.1,3.6-.4.4-.3,1-1.7,1.8-4.3l7.2-23.8c1.5-5,3.3-10,5.3-15.2-.2.3-.8,1.4-1.8,3.1-.1.2-.5.8-1.1,1.8l-5.9,9.3ZM628,210.3c-.6,2.1-.9,3.5-.9,4.4s.3,2.1.9,2.9c.6.8,1.5,1.2,2.6,1.2,1.7,0,3.4-1,5.2-2.9,1.8-1.9,3.4-5.1,4.8-9.6,1.5-4.5,2.2-7.9,2.2-10.1s-.2-2.6-.7-3.3c-.5-.7-1.2-1.1-2.1-1.1s-2.9.9-5,2.7c-2.1,1.8-4,5.6-5.7,11.3l-1.4,4.5Z"/>
      <path class="st1" d="M672.6,190.5h4.2l-6.2,20.3c-.9,2.9-1.4,4.7-1.4,5.3s.1.8.3,1.1c.2.2.5.4.9.4,1.6,0,3.4-1.8,5.5-5.5h1.5c-.9,2.1-2.2,4-3.9,5.7s-3.2,2.5-4.6,2.5-1.9-.4-2.5-1.2-.9-1.8-.9-3,.2-2.2.7-3.7c-1,1.8-2.5,3.5-4.5,5.3-2,1.7-3.8,2.6-5.6,2.6s-3-.7-4.2-2.1c-1.2-1.4-1.8-3.2-1.8-5.6s.9-6.5,2.7-10.1c1.8-3.6,4.2-6.6,7-9s5.4-3.6,7.4-3.6,2.2.3,2.9.9c.7.6,1.2,1.4,1.4,2.6l.9-2.9ZM654.5,213.7c0,1.5.2,2.7.7,3.4.5.8,1.2,1.2,2.1,1.2,1.5,0,3.4-1.1,5.5-3.4s4-5.7,5.6-10.3,2.4-7.8,2.4-9.4-.2-1.8-.7-2.5c-.5-.7-1.2-1-2.1-1-2.8,0-5.7,2.8-8.8,8.3-3,5.6-4.5,10.1-4.5,13.6Z"/>
      <path class="st1" d="M705.4,212.8h1.8c-1.4,2.5-2.8,4.4-4.2,5.6s-2.9,1.9-4.4,1.9-1.9-.3-2.7-1c-.8-.6-1.1-1.6-1.1-2.8s.5-3.1,1.6-6.2l3.7-10.6c1-2.9,1.5-4.8,1.5-5.6s-.2-1.3-.5-1.7-.8-.6-1.5-.6c-1.8,0-4,2.1-6.9,6.2-2.8,4.1-5.3,9.5-7.3,16.2l-1.7,5.5h-4.2l6.1-19.7c1.1-3.6,1.7-5.7,1.7-6.2s0-.7-.2-.9c-.1-.2-.4-.3-.7-.3-1.4,0-3,1.7-4.9,5.1h-1.6c2.9-5.2,5.6-7.9,8.2-7.9s1.6.3,2,.8.7,1.4.7,2.5c0,2-.8,5.1-2.3,9.2,4.2-8.3,8.2-12.5,12.2-12.5s2.4.4,3.3,1.3c.9.8,1.4,2.1,1.4,3.7s-.5,3-1.4,5.8l-3.7,11.1c-1,3-1.5,4.6-1.5,5s.1.8.3,1c.2.2.5.3,1,.3.8,0,1.6-.4,2.5-1.3.9-.9,1.9-2.2,2.9-4ZM688.6,186h-1c.4-5.6,2.6-8.4,6.8-8.4s2,.2,2.8.6,2.2,1.4,4.1,2.9c1.4,1.1,2.4,1.6,3.1,1.6,2.2,0,3.4-1.7,3.4-5h1c0,2.9-.7,5.1-2,6.4-1.4,1.3-2.8,2-4.4,2s-4-1-6.5-3.1c-1.5-1.3-2.7-1.9-3.6-1.9-2.2,0-3.4,1.7-3.6,5Z"/>
      <path class="st1" d="M710.6,210.2c0-2.8.6-5.8,1.9-9.1,1.3-3.3,3.1-5.9,5.5-8,2.4-2,4.7-3,7-3s3.7.9,5.1,2.6c1.3,1.7,2,4.1,2,7.1s-.7,7-2.2,10.3c-1.5,3.2-3.3,5.7-5.6,7.4-2.2,1.7-4.4,2.6-6.6,2.6s-3.6-.7-5-2.2-2.2-4-2.2-7.7ZM714.3,214.2c0,1.2.3,2.3,1,3.2s1.5,1.3,2.7,1.3c3.1,0,5.6-2.9,7.6-8.8,2-5.9,3-10.3,3-13.4s-.3-2.8-.9-3.6-1.5-1.2-2.8-1.2c-2.9,0-5.4,2.7-7.5,8.2-2.1,5.4-3.1,10.2-3.1,14.4Z"/>
      <path class="st1" d="M749.1,211h1.5c-2.4,6.2-5.4,9.3-9.1,9.3s-2.3-.4-3-1.3c-.8-.8-1.1-1.9-1.1-3.2s.8-4.3,2.3-9.2l8.1-26.7c.7-2.3,1-3.6,1-3.9,0-.6-.2-.9-.5-1.2s-1.1-.3-2.3-.3h-1.4l.5-1.5c3.8,0,6.6-.5,8.4-1.2h.9l-11.2,36.7c-.2.6-.5,1.6-1,3.2-.7,2-1,3.5-1,4.6s.1,1.2.4,1.6c.3.3.7.5,1.2.5.8,0,1.8-.5,2.9-1.6s2.3-2.9,3.4-5.6Z"/>
    </g>
  </g>
</svg>
